<?xml version="1.0" standalone="no"?><!DOCTYPE svg PUBLIC "-//W3C//DTD SVG 1.1//EN" "http://www.w3.org/Graphics/SVG/1.1/DTD/svg11.dtd"><svg t="1579181495935" class="icon" viewBox="0 0 1024 1024" version="1.1" xmlns="http://www.w3.org/2000/svg" p-id="6431" width="128" height="128" xmlns:xlink="http://www.w3.org/1999/xlink"><defs><style type="text/css">html, * {  }
</style></defs><path d="M996.544 448.597333l-94.645333-99.722667 26.037333-83.264c1.898667-6.058667-0.725333-12.650667-6.304-15.722667l-101.664-56.202667-20.789333-78.133333c-1.386667-5.216-5.781333-9.098667-11.146667-9.834667l-98.144-13.397333-70.069333-63.253333c-2.485333-2.261333-5.706667-3.456-8.981333-3.456-1.173333 0-2.357333 0.170667-3.52 0.48L512 52.042667l-95.306667-25.941333c-1.162667-0.309333-2.346667-0.48-3.530667-0.48-3.274667 0-6.485333 1.194667-8.970667 3.456l-70.069333 63.253333-98.154667 13.397333c-5.354667 0.736-9.76 4.618667-11.136 9.834667l-20.8 78.133333-101.653333 56.202667c-5.568 3.072-8.202667 9.653333-6.304 15.722667l26.026667 83.264-94.645333 99.722667c-4.768 5.024-4.917333 12.853333-0.341333 18.069333l74.869333 85.184L52.224 719.669333c-1.034667 3.466667-0.618667 7.189333 1.141333 10.346667 1.76 3.168 4.714667 5.482667 8.202667 6.410667l142.592 38.570667 80.757333 214.709333c1.301333 3.477333 3.989333 6.250667 7.424 7.690667 1.642667 0.650667 3.370667 0.992 5.109333 0.992 1.898667 0 3.797333-0.384 5.557333-1.194667L512 901.877333l208.970667 95.306667c1.770667 0.810667 3.658667 1.194667 5.557333 1.194667 1.738667 0 3.466667-0.341333 5.109333-0.992 3.434667-1.44 6.122667-4.213333 7.424-7.690667l80.768-214.709333 142.602667-38.570667c3.477333-0.928 6.442667-3.242667 8.192-6.410667 1.770667-3.157333 2.176-6.88 1.152-10.346667L922.026667 551.850667l74.88-85.184C1001.472 461.450667 1001.322667 453.610667 996.544 448.597333zM907.082667 548.576l51.861333 174.901333L809.728 763.84l-83.189333 221.130667L512 887.146667l-214.538667 97.834667L214.293333 763.84 65.077333 723.477333l51.850667-174.901333-79.754667-90.752 100.042667-105.450667-28.373333-90.752 106.666667-58.954667 22.261333-83.648 102.261333-13.941333 73.130667-66.058667L512 65.92l98.837333-26.890667 73.141333 66.058667 102.250667 13.941333L808.490667 202.666667l106.666667 58.954667-28.384 90.752 100.064 105.450667L907.082667 548.576z" p-id="6432"></path><path d="M894.986667 274.144l-101.322667-56-21.152-79.488-97.130667-13.237333-69.482667-62.741333L512 88.224l-93.888-25.557333-69.482667 62.741333-97.141333 13.237333-21.162667 79.488-101.322667 56 26.954667 86.218667-95.061333 100.16 75.776 86.208-49.269333 166.186667 141.76 38.346667 79.018667 210.058667L512 868.362667l203.808 92.96 79.018667-210.058667 141.770667-38.346667-49.269333-166.186667 75.765333-86.208-95.072-100.16L894.986667 274.144zM765.770667 712.181333 664.853333 390.986667l-100.917333 321.184-103.850667 0-100.917333-321.184-100.917333 321.184-100.490667 0L308.906667 231.061333l100.501333 0L512 557.578667l102.688-326.954667 100.405333 0.437333 151.168 481.109333L765.770667 712.170667z" p-id="6433"></path></svg>